<?xml version="1.0" encoding="UTF-8"?>
<svg xmlns="http://www.w3.org/2000/svg" version="1.1" viewBox="0 0 32 32">
  <!-- Generator: Adobe Illustrator 29.1.0, SVG Export Plug-In . SVG Version: 2.1.0 Build 142)  -->
  <defs>
    <style>
      .st0 {
        display: none;
      }

      .st1 {
        fill: #182b3c;
      }
    </style>
  </defs>
  <g id="phone" class="st0">
    <path class="st1" d="M8.12.27c1.13.35,1.87,1.21,2.54,2.09,1.13,1.5,3.06,4.22,2.42,6.1-.79,2.36-4.48,2.55-4.05,5.45.39,2.63,5.28,7.85,7.72,9.09,3.01,1.53,3.54-.38,5.57-1.87,2.37-1.74,4.29-.32,6.21,1.19,1.89,1.49,4.62,3.48,2.16,5.74-3.67,3.37-7.37,4.57-12.38,2.9C11.64,28.76,3.48,19.85,1.57,13.42-.02,8.09,1.62,4.22,6.09.95c.42-.31.82-.52,1.32-.68h.71Z"/>
  </g>
  <g id="Email">
    <path class="st1" d="M3.89,5.79l24.02-.02.95.25-12.23,11.97c-.32.28-.93.28-1.26,0L3.14,6.03l.75-.23Z"/>
    <path class="st1" d="M11.69,16.34c.08-.02.18.08.24.13,1.47,1.13,2.19,3.04,4.4,2.87,1.48-.11,2.76-2.05,3.82-2.96l.16-.05,8.56,8.38-.95.25H4.09c-.16-.01-.99-.12-.95-.3l8.55-8.33Z"/>
    <polygon class="st1" points="30.12 6.71 30.34 7.61 30.34 22.59 30.09 23.54 21.44 15.11 30.12 6.71"/>
    <polygon class="st1" points="1.88 23.54 1.66 22.64 1.66 7.67 1.91 6.71 10.56 15.15 1.88 23.54"/>
  </g>
</svg>