<?xml version="1.0" encoding="UTF-8"?>
<svg id="Camada_1" xmlns="http://www.w3.org/2000/svg" version="1.1" viewBox="0 0 32 32">
  <!-- Generator: Adobe Illustrator 29.1.0, SVG Export Plug-In . SVG Version: 2.1.0 Build 142)  -->
  <defs>
    <style>
      .st0 {
        fill: #182b3c;
      }
    </style>
  </defs>
  <path class="st0" d="M8.12.27c1.13.35,1.87,1.21,2.54,2.09,1.13,1.5,3.06,4.22,2.42,6.1-.79,2.36-4.48,2.55-4.05,5.45.39,2.63,5.28,7.85,7.72,9.09,3.01,1.53,3.54-.38,5.57-1.87,2.37-1.74,4.29-.32,6.21,1.19,1.89,1.49,4.62,3.48,2.16,5.74-3.67,3.37-7.37,4.57-12.38,2.9C11.64,28.76,3.48,19.85,1.57,13.42-.02,8.09,1.62,4.22,6.09.95c.42-.31.82-.52,1.32-.68h.71Z"/>
</svg>