<?xml version="1.0" encoding="UTF-8"?>
<svg xmlns="http://www.w3.org/2000/svg" version="1.1" viewBox="0 0 32 32">
  <!-- Generator: Adobe Illustrator 29.1.0, SVG Export Plug-In . SVG Version: 2.1.0 Build 142)  -->
  <defs>
    <style>
      .st0 {
        fill: #fff;
      }

      .st1 {
        display: none;
      }

      .st2 {
        fill: #182b3c;
      }
    </style>
  </defs>
  <g id="phone" class="st1">
    <path class="st2" d="M8.12.27c1.13.35,1.87,1.21,2.54,2.09,1.13,1.5,3.06,4.22,2.42,6.1-.79,2.36-4.48,2.55-4.05,5.45.39,2.63,5.28,7.85,7.72,9.09,3.01,1.53,3.54-.38,5.57-1.87,2.37-1.74,4.29-.32,6.21,1.19,1.89,1.49,4.62,3.48,2.16,5.74-3.67,3.37-7.37,4.57-12.38,2.9C11.64,28.76,3.48,19.85,1.57,13.42-.02,8.09,1.62,4.22,6.09.95c.42-.31.82-.52,1.32-.68h.71Z"/>
  </g>
  <g id="Email" class="st1">
    <path class="st2" d="M3.89,5.79l24.02-.02.95.25-12.23,11.97c-.32.28-.93.28-1.26,0L3.14,6.03l.75-.23Z"/>
    <path class="st2" d="M11.69,16.34c.08-.02.18.08.24.13,1.47,1.13,2.19,3.04,4.4,2.87,1.48-.11,2.76-2.05,3.82-2.96l.16-.05,8.56,8.38-.95.25H4.09c-.16-.01-.99-.12-.95-.3l8.55-8.33Z"/>
    <polygon class="st2" points="30.12 6.71 30.34 7.61 30.34 22.59 30.09 23.54 21.44 15.11 30.12 6.71"/>
    <polygon class="st2" points="1.88 23.54 1.66 22.64 1.66 7.67 1.91 6.71 10.56 15.15 1.88 23.54"/>
  </g>
  <g id="Camada_3">
    <path class="st2" d="M16.78.35l2.89.47c5.92,1.51,10.54,6.66,11.32,12.75.05.38.04.79.13,1.15v1.79c-.09.37-.08.77-.13,1.15-.79,6.1-5.39,11.24-11.32,12.75l-2.89.47h-1.79l-2.89-.47c-5.92-1.51-10.54-6.66-11.32-12.75-.05-.38-.04-.79-.13-1.15.02-.59-.03-1.2,0-1.79C1.08,7.08,7.38.8,15,.35h1.79ZM15.22,4.96c-3.21.33-5.16,3.84-4.04,6.81,1.49,3.94,6.98,4.4,9.06.72,2.09-3.71-.82-7.97-5.02-7.54ZM12.6,17.49c-2.28.19-4.27,1.85-4.67,4.14-.29,1.69.21,2.31,1.51,3.22,3.86,2.71,8.99,2.71,12.86.02,1.4-.98,1.9-1.7,1.49-3.49-.51-2.22-2.47-3.77-4.71-3.92-1.8-.12-4.67-.13-6.47.02Z"/>
    <path class="st0" d="M12.64,17.49c1.77-.15,4.61-.14,6.4-.02,2.21.15,4.16,1.71,4.66,3.92.41,1.78-.08,2.51-1.47,3.49-3.83,2.69-8.9,2.68-12.71-.02-1.28-.91-1.79-1.54-1.5-3.22.4-2.29,2.37-3.96,4.62-4.14Z"/>
    <path class="st0" d="M15.19,4.96c4.15-.43,7.03,3.83,4.97,7.54s-7.49,3.21-8.96-.72c-1.11-2.98.82-6.49,3.99-6.81Z"/>
  </g>
</svg>